<?xml version="1.0" encoding="utf-8"?>
<!-- Svg Vector Icons : http://www.onlinewebfonts.com/icon -->
<!DOCTYPE svg PUBLIC "-//W3C//DTD SVG 1.1//EN" "http://www.w3.org/Graphics/SVG/1.1/DTD/svg11.dtd">
<svg version="1.1" xmlns="http://www.w3.org/2000/svg" xmlns:xlink="http://www.w3.org/1999/xlink" x="0px" y="0px" viewBox="0 0 256 256" enable-background="new 0 0 256 256" xml:space="preserve">
<metadata> Svg Vector Icons : http://www.onlinewebfonts.com/icon </metadata>
<g><g><g><path fill="#000000" d="M94.1,10.4c-5.4,1.1-14.9,6.8-25.1,15.1c-6.6,5.4-22.3,21-27.7,27.7C32.6,63.9,27.1,73,26.1,78.8c-0.3,1.9-0.4,25.9-0.3,71.9c0.1,65,0.2,69.4,1,72.1c2.6,8.5,9,16.3,16.6,19.9c7.4,3.5,3.3,3.3,69.2,3.3c56.3,0,59.8,0,62.8-0.9c10.6-3,19.7-12,22.4-22.3c0.4-1.6,0.9-5.9,1.1-9.5l0.3-6.5h-7.9h-7.9l-0.2,6.3c-0.1,5.4-0.3,6.6-1.3,8.5c-1.5,3-4.2,5.7-7.2,7.3l-2.5,1.3l-59.3,0.1l-59.3,0.1l-2.8-1.2c-3.4-1.6-6.1-4.1-7.8-7.4l-1.3-2.5l-0.1-69.3l-0.1-69.3l14.4-0.2c16.1-0.2,17.6-0.5,23.8-3.7c4.7-2.4,10.7-8.5,13.2-13.2c3.2-6.2,3.4-7.7,3.7-23.8l0.2-14.4l37.8,0.1l37.7,0.1l2.5,1.3c3.3,1.7,5.8,4.4,7.3,7.8l1.3,2.7v41.2v41.3h7.9h7.9l-0.2-42c-0.1-46.6,0-43.6-3.6-51.1c-2.4-4.9-8.3-10.8-13.2-13.4c-7.1-3.7-4.9-3.5-47.5-3.6C113.3,10,95.3,10.1,94.1,10.4z"/><path fill="#000000" d="M84.8,128.8c-3.4,0.9-5.5,2.2-7.9,4.9c-3.7,4.2-3.7,4.4-3.7,29.8c0,26.3-0.1,25.9,4.6,30.6c5.1,5-1.6,4.6,73.9,4.6c75.5,0,68.9,0.4,73.9-4.6c4.7-4.7,4.6-4.3,4.6-30.6s0.1-25.9-4.6-30.6c-5.1-5.1,1.8-4.6-72.9-4.7C96.7,128.1,87,128.2,84.8,128.8z M119.7,163.4c4.6,10.7,8.3,19.5,8.3,19.6c0,0.1-1.7,0.2-3.9,0.2h-3.9l-1.9-4.8l-1.9-4.8l-8.4-0.1l-8.3-0.1l-1.8,4.8l-1.8,4.8l-3.7,0.1c-2.1,0.1-3.7,0-3.7-0.1c0-0.3,15.3-38.2,15.6-38.8c0.1-0.2,1.8-0.3,3.7-0.2l3.5,0.1L119.7,163.4z M160.8,145.2c4.8,2.2,6.6,5.1,6.6,10.4c0,4-1.4,7-4.2,9c-3,2.1-6.6,2.8-13.6,2.8h-6.3v7.9v7.9h-3.7h-3.7v-19.8v-19.8l11.2,0.2C157.6,144,158.5,144.1,160.8,145.2z M183.2,152.4v8.6l10.1-8.6l10.1-8.6h5.5c6.5,0,7.1-1-5.1,8.9c-4.7,3.9-8.6,7.2-8.6,7.4c0,0.2,4,5,8.9,10.6c4.8,5.6,9.3,10.7,9.8,11.3l0.9,1.2h-5.1h-5.2l-7.5-9.1c-4.1-5-7.6-9.1-7.8-9.1c-0.1,0-1.6,1-3.1,2.3l-2.9,2.3v6.8v6.8h-3.9h-3.9v-19.7v-19.7h3.9h3.9L183.2,152.4L183.2,152.4z"/><path fill="#000000" d="M104.9,159.7l-2.8,7.5l5.7,0.1c3.1,0.1,5.8,0.1,5.9,0c0.2-0.2-5.1-14.2-5.7-14.7C107.8,152.4,106.4,155.6,104.9,159.7z"/><path fill="#000000" d="M143.3,155.7v5.5l6.5-0.2c7.5-0.2,8.8-0.7,9.7-3.6c0.7-2.7-0.2-5.1-2.4-6.2c-1.4-0.7-3-0.9-7.7-0.9h-6.1L143.3,155.7L143.3,155.7z"/></g></g></g>
</svg>