<svg width="47" height="47" viewBox="0 0 47 47" fill="none" xmlns="http://www.w3.org/2000/svg">
<g filter="url(#filter0_d_93_1050)">
<g filter="url(#filter1_d_93_1050)">
<g clip-path="url(#clip0_93_1050)">
<path d="M9.58379 38.6512C9.38807 38.8158 9.14943 38.9212 8.89589 38.9549C8.64236 38.9886 8.38447 38.9493 8.15253 38.8415C7.92058 38.7338 7.7242 38.562 7.58647 38.3465C7.44874 38.131 7.37538 37.8807 7.375 37.6249V4.98122C7.375 4.62483 7.51657 4.28305 7.76858 4.03104C8.02058 3.77904 8.36237 3.63747 8.71875 3.63747H38.2812C38.6376 3.63747 38.9794 3.77904 39.2314 4.03104C39.4834 4.28305 39.625 4.62483 39.625 4.98122V32.2499C39.625 32.6063 39.4834 32.9481 39.2314 33.2001C38.9794 33.4521 38.6376 33.5936 38.2812 33.5936H15.8574C15.5409 33.5937 15.2345 33.7056 14.9924 33.9094L9.58379 38.6512Z" fill="#97C751"/>
</g>
<g clip-path="url(#clip1_93_1050)">
<path d="M32.0938 12.25H14.9062" stroke="white" stroke-width="1.5" stroke-linecap="round" stroke-linejoin="round"/>
<path d="M21.1562 16.75V22.75" stroke="white" stroke-width="1.5" stroke-linecap="round" stroke-linejoin="round"/>
<path d="M25.8438 16.75V22.75" stroke="white" stroke-width="1.5" stroke-linecap="round" stroke-linejoin="round"/>
<path d="M30.5312 12.25V26.5C30.5312 26.6989 30.4489 26.8897 30.3024 27.0303C30.1559 27.171 29.9572 27.25 29.75 27.25H17.25C17.0428 27.25 16.8441 27.171 16.6976 27.0303C16.5511 26.8897 16.4688 26.6989 16.4688 26.5V12.25" stroke="white" stroke-width="1.5" stroke-linecap="round" stroke-linejoin="round"/>
<path d="M27.4062 12.25V10.75C27.4062 10.3522 27.2416 9.97064 26.9486 9.68934C26.6556 9.40804 26.2582 9.25 25.8438 9.25H21.1562C20.7418 9.25 20.3444 9.40804 20.0514 9.68934C19.7584 9.97064 19.5938 10.3522 19.5938 10.75V12.25" stroke="white" stroke-width="1.5" stroke-linecap="round" stroke-linejoin="round"/>
</g>
</g>
</g>
<defs>
<filter id="filter0_d_93_1050" x="0" y="0" width="47" height="47" filterUnits="userSpaceOnUse" color-interpolation-filters="sRGB">
<feFlood flood-opacity="0" result="BackgroundImageFix"/>
<feColorMatrix in="SourceAlpha" type="matrix" values="0 0 0 0 0 0 0 0 0 0 0 0 0 0 0 0 0 0 127 0" result="hardAlpha"/>
<feOffset dy="2"/>
<feGaussianBlur stdDeviation="1"/>
<feComposite in2="hardAlpha" operator="out"/>
<feColorMatrix type="matrix" values="0 0 0 0 0 0 0 0 0 0 0 0 0 0 0 0 0 0 0.1 0"/>
<feBlend mode="normal" in2="BackgroundImageFix" result="effect1_dropShadow_93_1050"/>
<feBlend mode="normal" in="SourceGraphic" in2="effect1_dropShadow_93_1050" result="shape"/>
</filter>
<filter id="filter1_d_93_1050" x="0" y="0" width="47" height="47" filterUnits="userSpaceOnUse" color-interpolation-filters="sRGB">
<feFlood flood-opacity="0" result="BackgroundImageFix"/>
<feColorMatrix in="SourceAlpha" type="matrix" values="0 0 0 0 0 0 0 0 0 0 0 0 0 0 0 0 0 0 127 0" result="hardAlpha"/>
<feOffset dy="2"/>
<feGaussianBlur stdDeviation="1"/>
<feComposite in2="hardAlpha" operator="out"/>
<feColorMatrix type="matrix" values="0 0 0 0 0 0 0 0 0 0 0 0 0 0 0 0 0 0 0.1 0"/>
<feBlend mode="normal" in2="BackgroundImageFix" result="effect1_dropShadow_93_1050"/>
<feBlend mode="normal" in="SourceGraphic" in2="effect1_dropShadow_93_1050" result="shape"/>
</filter>
<clipPath id="clip0_93_1050">
<rect width="43" height="43" fill="white" transform="translate(2)"/>
</clipPath>
<clipPath id="clip1_93_1050">
<rect width="25" height="24" fill="white" transform="translate(11 7)"/>
</clipPath>
</defs>
</svg>
