<svg width="216" height="94" viewBox="0 0 216 94" fill="none" xmlns="http://www.w3.org/2000/svg">
<path d="M165.456 49.5003C165.456 50.2904 165.608 50.8222 165.912 51.0957C166.216 51.3388 166.763 51.4604 167.553 51.4604H180.635C181.334 51.4604 181.927 51.5667 182.413 51.7795C182.899 51.9922 183.294 52.2809 183.598 52.6455C183.932 52.9798 184.16 53.3749 184.282 53.8307C184.434 54.2561 184.51 54.6968 184.51 55.1526C184.51 56.0947 184.206 56.9456 183.598 57.7053C182.99 58.4954 182.003 58.8904 180.635 58.8904H164.271C162.842 58.8904 161.627 58.7537 160.624 58.4802C159.621 58.2067 158.801 57.7661 158.163 57.1583C157.555 56.5505 157.099 55.7604 156.795 54.7879C156.522 53.7851 156.385 52.5696 156.385 51.1413V42.8451C156.385 41.4168 156.522 40.2165 156.795 39.244C157.099 38.2716 157.555 37.4815 158.163 36.8737C158.801 36.2659 159.621 35.8405 160.624 35.5974C161.627 35.3239 162.842 35.1871 164.271 35.1871H169.194V28.5775C169.194 28.2737 169.118 27.985 168.966 27.7115C168.814 27.438 168.48 27.3012 167.963 27.3012H160.715C160.016 27.3012 159.424 27.1949 158.937 26.9821C158.451 26.7694 158.056 26.4807 157.752 26.116C157.448 25.7514 157.22 25.3411 157.069 24.8853C156.917 24.4295 156.841 23.9736 156.841 23.5178C156.841 23.062 156.901 22.6061 157.023 22.1503C157.175 21.6945 157.403 21.2842 157.707 20.9196C158.041 20.5549 158.451 20.2662 158.937 20.0535C159.424 19.8104 160.016 19.6888 160.715 19.6888H170.197C171.777 19.6888 173.068 19.8104 174.071 20.0535C175.104 20.2966 175.925 20.6916 176.533 21.2386C177.14 21.7856 177.566 22.4998 177.809 23.381C178.052 24.2623 178.174 25.3563 178.174 26.663V42.6172H167.097C166.307 42.6172 165.836 42.754 165.684 43.0275C165.532 43.2706 165.456 43.7872 165.456 44.5773V49.5003ZM187.609 60.805V48.3151H183.689C182.99 48.3151 182.398 48.2088 181.911 47.996C181.456 47.7529 181.061 47.449 180.726 47.0844C180.422 46.7197 180.194 46.3095 180.042 45.8536C179.921 45.3674 179.86 44.8964 179.86 44.4405C179.86 43.9847 179.921 43.5289 180.042 43.073C180.194 42.6172 180.422 42.207 180.726 41.8423C181.03 41.4472 181.425 41.1433 181.911 40.9306C182.398 40.6875 182.99 40.566 183.689 40.566H187.609V34.9136H183.735C183.036 34.9136 182.443 34.8073 181.957 34.5945C181.501 34.3514 181.106 34.0475 180.772 33.6829C180.468 33.3182 180.24 32.908 180.088 32.4521C179.967 31.9659 179.906 31.4949 179.906 31.039C179.906 30.5832 179.967 30.1274 180.088 29.6715C180.24 29.2157 180.468 28.8055 180.772 28.4408C181.076 28.0457 181.471 27.7419 181.957 27.5291C182.443 27.286 183.036 27.1645 183.735 27.1645H187.609V22.515C187.609 21.0259 188.05 19.9015 188.931 19.1418C189.813 18.3821 190.861 18.0022 192.077 18.0022C193.262 18.0022 194.31 18.3973 195.222 19.1874C196.133 19.9471 196.589 21.0563 196.589 22.515V60.805H187.609Z" fill="#97C751"/>
<path d="M116.097 53.1296C114.779 52.9037 113.721 52.5991 112.924 52.2158C112.126 51.8325 111.534 51.3302 111.147 50.7089C110.76 50.0877 110.534 49.3397 110.468 48.4651C110.437 47.5657 110.527 46.502 110.737 45.274L115.464 17.6879C115.736 16.1004 116.351 15.0341 117.308 14.4889C118.264 13.9437 119.402 13.784 120.719 14.0099C122.007 14.2306 122.979 14.7671 123.635 15.6194C124.325 16.4468 124.537 17.6393 124.27 19.1969L123.093 26.0709L130.73 27.3797L131.908 20.5057C132.18 18.9182 132.78 17.8493 133.706 17.299C134.633 16.7487 135.741 16.5838 137.029 16.8045C138.346 17.0304 139.333 17.5694 139.989 18.4218C140.679 19.2492 140.891 20.4417 140.624 21.9993L138.9 32.0632L144.336 32.9948L146.33 21.3583C146.577 19.9206 147.211 18.9193 148.232 18.3544C149.259 17.7596 150.357 17.5623 151.525 17.7625C152.094 17.86 152.63 18.0598 153.133 18.3618C153.642 18.6339 154.075 18.9856 154.432 19.4169C154.79 19.8482 155.043 20.3539 155.19 20.9341C155.367 21.5194 155.394 22.1715 155.271 22.8904L148.789 60.7202L139.848 59.1881L143.02 40.6776L137.583 39.746L134.742 56.3246L116.097 53.1296ZM127.297 47.4178L129.475 34.7031L121.838 33.3943L119.859 44.9409C119.772 45.4501 119.79 45.7924 119.914 45.9678C120.073 46.1184 120.408 46.2373 120.917 46.3246L127.297 47.4178Z" fill="#97C751"/>
<path d="M71.6453 58.9816C70.217 58.9816 69.0622 58.8904 68.181 58.7081C67.3301 58.5258 66.6767 58.1915 66.2209 57.7053C65.765 57.2191 65.4612 56.5505 65.3092 55.6996C65.1573 54.8183 65.0813 53.694 65.0813 52.3265V26.2072C65.0813 24.8397 65.1573 23.7305 65.3092 22.8796C65.4612 21.9984 65.765 21.3146 66.2209 20.8284C66.6767 20.3422 67.3301 20.0231 68.181 19.8711C69.0622 19.6888 70.217 19.5976 71.6453 19.5976H90.38C91.6564 19.5976 92.5528 19.9623 93.0695 20.6916C93.6165 21.421 93.89 22.2567 93.89 23.1987C93.89 24.1712 93.6165 25.0221 93.0695 25.7514C92.5528 26.4807 91.6564 26.8454 90.38 26.8454H88.1465C87.6298 26.8454 87.2956 26.9214 87.1436 27.0733C86.9917 27.2252 86.9157 27.5595 86.9157 28.0761V50.5031C86.9157 51.0197 86.9917 51.354 87.1436 51.506C87.2956 51.6579 87.6298 51.7339 88.1465 51.7339H91.2005C92.5073 51.7339 93.4189 52.0985 93.9355 52.8279C94.4521 53.5572 94.7104 54.3929 94.7104 55.335C94.7104 56.3074 94.437 57.1583 93.89 57.8876C93.3733 58.617 92.4769 58.9816 91.2005 58.9816H71.6453ZM95.8956 22.4238C95.8956 20.9651 96.3363 19.8711 97.2175 19.1418C98.1292 18.3821 99.1776 18.0022 100.363 18.0022C100.94 18.0022 101.502 18.1086 102.049 18.3213C102.596 18.5036 103.067 18.7771 103.462 19.1418C103.888 19.5065 104.222 19.9623 104.465 20.5093C104.708 21.0563 104.83 21.6945 104.83 22.4238V33.9564H105.696C106.395 33.9564 106.988 34.0779 107.474 34.321C107.96 34.5642 108.355 34.8832 108.659 35.2783C108.963 35.643 109.176 36.0684 109.297 36.5546C109.449 37.0105 109.525 37.4663 109.525 37.9221C109.525 38.378 109.449 38.849 109.297 39.3352C109.176 39.791 108.948 40.2165 108.613 40.6115C108.309 40.9762 107.914 41.2801 107.428 41.5232C106.942 41.7663 106.365 41.8879 105.696 41.8879H104.83V60.805H95.8956V22.4238ZM73.5142 50.5031C73.5142 51.0197 73.5902 51.354 73.7421 51.506C73.8941 51.6579 74.2283 51.7339 74.745 51.7339H78.5284V26.8454H74.745C74.2283 26.8454 73.8941 26.9214 73.7421 27.0733C73.5902 27.2252 73.5142 27.5595 73.5142 28.0761V50.5031Z" fill="#97C751"/>
<path d="M50.8593 60.805V49.9561H44.3408C43.9154 53.2989 42.5935 55.7908 40.3751 57.4318C38.1871 59.1032 35.4369 59.9389 32.1245 59.9389C30.3012 59.9389 28.6146 59.6806 27.0648 59.1639C25.5453 58.6777 24.2234 57.9332 23.099 56.9304C22.005 55.8971 21.1389 54.6208 20.5008 53.1014C19.893 51.5515 19.5891 49.7586 19.5891 47.7225V30.9479C19.5891 28.9118 19.893 27.1341 20.5008 25.6146C21.1389 24.0648 22.005 22.7885 23.099 21.7856C24.2234 20.7524 25.5453 19.9927 27.0648 19.5065C28.6146 18.9899 30.3012 18.7316 32.1245 18.7316C35.2242 18.7316 37.8376 19.4609 39.9648 20.9196C42.1225 22.3782 43.5203 24.551 44.1585 27.438H50.8593V22.515C50.8593 21.0259 51.2999 19.9015 52.1812 19.1418C53.0625 18.3821 54.1109 18.0022 55.3264 18.0022C56.5116 18.0022 57.56 18.3973 58.4717 19.1874C59.3833 19.9471 59.8392 21.0563 59.8392 22.515V60.805H50.8593ZM28.3867 48.0416C28.3867 49.6218 28.7362 50.7614 29.4351 51.4604C30.1644 52.1593 31.0609 52.5088 32.1245 52.5088C33.1881 52.5088 34.0694 52.1593 34.7684 51.4604C35.4977 50.7614 35.8624 49.6218 35.8624 48.0416V30.6288C35.8624 29.079 35.4977 27.9546 34.7684 27.2556C34.0694 26.5263 33.1881 26.1616 32.1245 26.1616C31.0609 26.1616 30.1644 26.5263 29.4351 27.2556C28.7362 27.9546 28.3867 29.079 28.3867 30.6288V48.0416ZM44.5232 42.3893H50.8593V35.0048H44.5232V42.3893Z" fill="#97C751"/>
<path fill-rule="evenodd" clip-rule="evenodd" d="M96.5494 0.590103C98.7683 1.32974 101.42 2.93234 104.145 6.26262C106.049 8.58963 107.411 11.4131 108.37 13.7875C109.699 10.2143 112.32 6.15047 117.367 4.63615C118.161 4.3981 118.997 4.84838 119.235 5.64187C119.473 6.43536 119.023 7.27158 118.229 7.50963C113.348 8.97398 111.249 13.7146 110.44 17.3547C110.374 17.6504 110.202 18.2067 109.922 18.6355C109.846 18.753 109.718 18.9279 109.53 19.0885C109.353 19.2403 108.977 19.4999 108.438 19.4981C107.844 19.4962 107.425 19.1829 107.196 18.9158C106.987 18.6729 106.876 18.4108 106.815 18.2347C106.802 18.1985 106.789 18.1618 106.776 18.1247C105.886 15.5807 104.387 11.2965 101.823 8.16233C99.4195 5.22491 97.2279 3.97855 95.6007 3.43615C94.1924 2.96671 93.1485 2.99244 92.4668 3.00924C92.3538 3.01202 92.2508 3.01456 92.1577 3.01456C91.3293 3.01456 90.6577 2.34299 90.6577 1.51456C90.6577 0.686132 91.3293 0.01456 92.1577 0.0145605C92.2153 0.0145605 92.2901 0.0123109 92.381 0.00958017C93.0543 -0.0106642 94.607 -0.057352 96.5494 0.590103Z" fill="#97C751"/>
<path d="M211.784 90.8331C211.784 90.1131 211.876 89.5411 212.06 89.1171C212.252 88.6851 212.6 88.2971 213.104 87.9531C213.528 87.6491 213.832 87.3731 214.016 87.1251C214.208 86.8771 214.304 86.5931 214.304 86.2731C214.304 85.8091 214.14 85.4371 213.812 85.1571C213.492 84.8771 213.048 84.7371 212.48 84.7371C212.088 84.7371 211.748 84.8211 211.46 84.9891C211.18 85.1571 210.964 85.3731 210.812 85.6371C210.668 85.9011 210.588 86.1771 210.572 86.4651H209.348C209.364 85.9531 209.504 85.4811 209.768 85.0491C210.032 84.6171 210.396 84.2771 210.86 84.0291C211.332 83.7731 211.868 83.6451 212.468 83.6451C213.1 83.6451 213.644 83.7611 214.1 83.9931C214.564 84.2171 214.916 84.5291 215.156 84.9291C215.396 85.3211 215.516 85.7691 215.516 86.2731C215.516 87.1051 215.072 87.8371 214.184 88.4691C213.84 88.7011 213.58 88.9371 213.404 89.1771C213.228 89.4171 213.108 89.6651 213.044 89.9211C212.988 90.1771 212.96 90.4811 212.96 90.8331H211.784ZM212.396 93.6891C212.148 93.6891 211.94 93.6011 211.772 93.4251C211.604 93.2571 211.52 93.0491 211.52 92.8011C211.52 92.5531 211.604 92.3451 211.772 92.1771C211.94 92.0091 212.148 91.9251 212.396 91.9251C212.644 91.9251 212.852 92.0091 213.02 92.1771C213.196 92.3451 213.284 92.5531 213.284 92.8011C213.284 93.0571 213.2 93.2691 213.032 93.4371C212.864 93.6051 212.652 93.6891 212.396 93.6891Z" fill="black"/>
<path d="M207.333 83.5011V93.7491H206.145V83.5011H207.333ZM202.149 84.9651C202.141 86.1011 202.033 87.1811 201.825 88.2051L205.173 92.3451L204.237 93.0531L201.477 89.5371C201.125 90.6091 200.649 91.4571 200.049 92.0811C199.457 92.6971 198.773 93.0491 197.997 93.1371V91.9611C198.597 91.8491 199.113 91.4811 199.545 90.8571C199.985 90.2331 200.325 89.4131 200.565 88.3971C200.805 87.3811 200.933 86.2371 200.949 84.9651H198.237V83.8731H204.777V84.9651H202.149Z" fill="black"/>
<path d="M194.602 83.5011H195.79V93.7491H194.602V83.5011ZM186.814 87.8811H191.398V84.9651H186.79V83.8731H192.586V88.9731H188.002V92.0451H191.002C191.49 92.0451 191.974 92.0011 192.454 91.9131C192.942 91.8251 193.342 91.7051 193.654 91.5531V92.6451C193.35 92.7971 192.954 92.9171 192.466 93.0051C191.978 93.0931 191.478 93.1371 190.966 93.1371H186.814V87.8811Z" fill="black"/>
<path d="M184.331 83.5011V93.7491H183.131V88.8171H180.911V93.1371H175.211V83.8011H176.387V87.3291H179.735V83.8011H180.911V87.7011H183.131V83.5011H184.331ZM179.735 92.0451V88.4211H176.387V92.0451H179.735Z" fill="black"/>
<path d="M169.628 83.5011V93.7491H168.5V83.5011H169.628ZM166.028 83.5611H167.144V93.5691H166.028V88.9011H164.672C164.64 90.3971 164.424 91.5011 164.024 92.2131C163.624 92.9171 163.048 93.2691 162.296 93.2691C161.504 93.2691 160.908 92.8851 160.508 92.1171C160.108 91.3411 159.908 90.1371 159.908 88.5051C159.908 86.8731 160.108 85.6731 160.508 84.9051C160.908 84.1291 161.504 83.7411 162.296 83.7411C163.024 83.7411 163.584 84.0691 163.976 84.7251C164.376 85.3811 164.604 86.3971 164.66 87.7731H166.028V83.5611ZM162.296 92.1891C162.72 92.1891 163.032 91.8891 163.232 91.2891C163.44 90.6891 163.544 89.7611 163.544 88.5051C163.544 87.2491 163.44 86.3211 163.232 85.7211C163.032 85.1211 162.72 84.8211 162.296 84.8211C161.872 84.8211 161.556 85.1211 161.348 85.7211C161.14 86.3211 161.036 87.2491 161.036 88.5051C161.036 89.7611 161.14 90.6891 161.348 91.2891C161.556 91.8891 161.872 92.1891 162.296 92.1891Z" fill="black"/>
<path d="M156.609 83.5011H157.798V93.7491L156.609 93.7611V83.5011ZM148.833 83.8731H154.857V84.9651H150.034V92.0451H153.01C153.498 92.0451 153.982 92.0011 154.462 91.9131C154.95 91.8251 155.349 91.7051 155.661 91.5531V92.6451C155.349 92.7971 154.946 92.9171 154.45 93.0051C153.962 93.0931 153.469 93.1371 152.973 93.1371H148.833V83.8731Z" fill="black"/>
<path d="M146.338 83.5011V93.7491H145.15V88.8651H143.182C143.134 90.3211 142.834 91.4211 142.282 92.1651C141.738 92.9011 141.022 93.2691 140.134 93.2691C139.198 93.2691 138.454 92.8691 137.902 92.0691C137.35 91.2691 137.074 90.0811 137.074 88.5051C137.074 86.9291 137.35 85.7411 137.902 84.9411C138.454 84.1411 139.198 83.7411 140.134 83.7411C140.99 83.7411 141.686 84.0771 142.222 84.7491C142.758 85.4211 143.07 86.4211 143.158 87.7491H145.15V83.5011H146.338ZM140.134 92.1771C140.694 92.1771 141.142 91.8771 141.478 91.2771C141.822 90.6691 141.994 89.7451 141.994 88.5051C141.994 87.2651 141.822 86.3451 141.478 85.7451C141.142 85.1371 140.694 84.8331 140.134 84.8331C139.566 84.8331 139.11 85.1371 138.766 85.7451C138.43 86.3451 138.262 87.2651 138.262 88.5051C138.262 89.7451 138.43 90.6691 138.766 91.2771C139.11 91.8771 139.566 92.1771 140.134 92.1771Z" fill="black"/>
<path d="M131.636 83.5011V93.7491H130.508V83.5011H131.636ZM128.036 83.5611H129.152V93.5691H128.036V88.7331H125.42V87.6291H128.036V83.5611ZM124.7 92.0811C125.132 92.0811 125.556 92.0411 125.972 91.9611C126.396 91.8811 126.768 91.7691 127.088 91.6251V92.6691C126.784 92.8131 126.404 92.9251 125.948 93.0051C125.492 93.0931 125.032 93.1371 124.568 93.1371H122.096V83.8731H126.644V84.9291H123.26V92.0811H124.7Z" fill="black"/>
<path d="M110.973 83.5011H112.173V86.4171H119.841V87.4731H110.973V83.5011ZM110.241 88.6011H120.477V89.6571H110.241V88.6011ZM110.949 90.5691H112.161V92.5731H119.949V93.6291H110.949V90.5691Z" fill="black"/>
<path d="M107.158 88.0491H104.974V87.0171H107.158V85.6491H105.37V84.6171H107.158V83.5011H108.346V89.2011H107.158V88.0491ZM104.866 84.9051C104.866 86.2651 104.35 87.2771 103.318 87.9411C102.294 88.5971 100.862 88.9251 99.0222 88.9251V87.8931C100.486 87.8851 101.626 87.6451 102.442 87.1731C103.258 86.7011 103.666 86.0131 103.666 85.1091V84.7611H99.0222V83.7531H104.866V84.9051ZM108.514 93.6891L106.462 92.0331C106.142 92.5051 105.754 92.8771 105.298 93.1491C104.85 93.4291 104.374 93.5851 103.87 93.6171L102.058 92.0691C101.73 92.5251 101.342 92.8891 100.894 93.1611C100.446 93.4331 99.9742 93.5851 99.4782 93.6171V92.5371C99.8542 92.5051 100.21 92.3491 100.546 92.0691C100.882 91.7891 101.158 91.4251 101.374 90.9771C101.598 90.5291 101.73 90.0411 101.77 89.5131L102.91 89.6811C102.862 90.1851 102.742 90.6771 102.55 91.1571L104.206 92.4891C104.526 92.3931 104.826 92.2011 105.106 91.9131C105.386 91.6251 105.618 91.2731 105.802 90.8571C105.986 90.4331 106.094 89.9851 106.126 89.5131L107.278 89.6811C107.23 90.1931 107.114 90.6771 106.93 91.1331L109.198 92.8251L108.514 93.6891Z" fill="black"/>
<path d="M94.1393 89.1531H93.0113V83.5611H94.1393V85.4331H95.8793V83.5011H97.0073V89.4891H95.8793V86.5251H94.1393V89.1531ZM89.9153 86.9451C89.3553 88.2091 88.4353 88.9571 87.1553 89.1891V88.1091C87.9313 87.8931 88.4953 87.3931 88.8473 86.6091C89.1993 85.8251 89.3753 84.8291 89.3753 83.6211L90.5153 83.6571C90.5153 84.4731 90.4393 85.2011 90.2873 85.8411L92.7233 88.1091L91.9433 88.8891L89.9153 86.9451ZM92.6153 89.6931C93.9673 89.6931 95.0633 89.8531 95.9033 90.1731C96.7433 90.4931 97.1633 91.0091 97.1633 91.7211C97.1633 92.4331 96.7433 92.9491 95.9033 93.2691C95.0633 93.5891 93.9673 93.7491 92.6153 93.7491C91.2633 93.7491 90.1673 93.5891 89.3273 93.2691C88.4873 92.9491 88.0673 92.4331 88.0673 91.7211C88.0673 91.0091 88.4873 90.4931 89.3273 90.1731C90.1673 89.8531 91.2633 89.6931 92.6153 89.6931ZM92.6153 92.7771C93.5513 92.7771 94.3313 92.6891 94.9553 92.5131C95.5873 92.3451 95.9033 92.0811 95.9033 91.7211C95.9033 91.3611 95.5873 91.0971 94.9553 90.9291C94.3313 90.7531 93.5513 90.6651 92.6153 90.6651C91.6793 90.6651 90.8953 90.7531 90.2633 90.9291C89.6393 91.0971 89.3273 91.3611 89.3273 91.7211C89.3273 92.0811 89.6393 92.3451 90.2633 92.5131C90.8953 92.6891 91.6793 92.7771 92.6153 92.7771Z" fill="black"/>
<path d="M82.9651 88.7931H81.5251V93.7491H80.3371V83.5011H81.5251V87.6531H82.9651V88.7931ZM72.6211 83.8731H78.2011V86.3451C78.2011 87.6971 77.9771 88.8851 77.5291 89.9091C77.0811 90.9251 76.4371 91.7131 75.5971 92.2731C74.7571 92.8331 73.7651 93.1131 72.6211 93.1131V91.9851C73.5411 91.9851 74.3251 91.7571 74.9731 91.3011C75.6291 90.8371 76.1291 90.1851 76.4731 89.3451C76.8171 88.5051 76.9891 87.5131 76.9891 86.3691V84.9651H72.6211V83.8731Z" fill="black"/>
<path d="M69.082 83.5011H70.27V93.7491H69.082V83.5011ZM61.186 91.9851C62.106 91.9851 62.902 91.7571 63.574 91.3011C64.254 90.8371 64.77 90.1851 65.122 89.3451C65.482 88.4971 65.662 87.5051 65.662 86.3691V84.9651H61.186V83.8731H66.874V86.3451C66.874 87.7051 66.642 88.8971 66.178 89.9211C65.722 90.9371 65.062 91.7251 64.198 92.2851C63.342 92.8371 62.338 93.1131 61.186 93.1131V91.9851Z" fill="black"/>
<path d="M59.0151 83.5011V93.7491H57.8871V83.5011H59.0151ZM55.4151 83.5611H56.5311V93.5691H55.4151V88.8411H54.1431V87.7131H55.4151V83.5611ZM51.5031 92.1051C52.7351 92.1051 53.7231 91.9451 54.4671 91.6251V92.6691C54.1311 92.8211 53.6991 92.9371 53.1711 93.0171C52.6511 93.0971 52.0751 93.1371 51.4431 93.1371H49.4751V87.9291H52.4271V84.9051H49.4751V83.8731H53.5431V88.9611H50.5911V92.1051H51.5031Z" fill="black"/>
<path d="M40.4881 87.5811C39.8881 88.8931 38.9801 89.6691 37.7641 89.9091V88.7691C39.1881 88.3451 39.9801 86.6131 40.1401 83.5731L41.3041 83.7291C41.2561 84.6651 41.1281 85.5451 40.9201 86.3691L42.6841 88.6011C43.8521 87.9691 44.5081 86.2931 44.6521 83.5731L45.8281 83.7291C45.7641 84.7931 45.6281 85.6891 45.4201 86.4171L47.7961 89.1291L46.9081 89.8371L45.0001 87.5811C44.4001 88.8931 43.4921 89.6691 42.2761 89.9091L40.4881 87.5811ZM47.8561 92.1411V93.2571H37.6201V92.1411H47.8561Z" fill="black"/>
<path d="M33.4298 88.7931H31.9898V93.7491H30.8018V83.5011H31.9898V87.6531H33.4298V88.7931ZM27.2618 92.0571C27.7498 92.0571 28.2338 92.0131 28.7138 91.9251C29.2018 91.8371 29.6018 91.7171 29.9138 91.5651V92.6451C29.6098 92.7971 29.2058 92.9171 28.7018 93.0051C28.2058 93.0931 27.7058 93.1371 27.2018 93.1371H23.1938V83.8731H29.1098V84.9531H24.4058V92.0571H27.2618Z" fill="black"/>
<path d="M21.887 88.7931H20.447V93.7491H19.259V83.5011H20.447V87.6531H21.887V88.7931ZM11.543 83.8731H17.123V86.3451C17.123 87.6971 16.899 88.8851 16.451 89.9091C16.003 90.9251 15.359 91.7131 14.519 92.2731C13.679 92.8331 12.687 93.1131 11.543 93.1131V91.9851C12.463 91.9851 13.247 91.7571 13.895 91.3011C14.551 90.8371 15.051 90.1851 15.395 89.3451C15.739 88.5051 15.911 87.5131 15.911 86.3691V84.9651H11.543V83.8731Z" fill="black"/>
<path d="M8.004 83.5011H9.192V88.5171H8.004V83.5011ZM0 87.3651C1.512 87.3571 2.692 87.1611 3.54 86.7771C4.396 86.3851 4.824 85.7891 4.824 84.9891V84.7491H0V83.7531H6.012V84.7971C6.012 86.0051 5.476 86.9011 4.404 87.4851C3.332 88.0691 1.864 88.3611 0 88.3611V87.3651ZM0.516001 90.9051H8.016V90.0171H0.492001V89.0811H9.192V91.7931H1.704V92.6811H9.444V93.6171H0.516001V90.9051Z" fill="black"/>
</svg>
