<svg width="440" height="258" viewBox="0 0 440 258" fill="none" xmlns="http://www.w3.org/2000/svg">
<path d="M361.782 123.045C361.782 125.01 362.159 126.331 362.913 127.011C363.666 127.616 365.023 127.918 366.983 127.918H399.43C401.164 127.918 402.633 128.182 403.839 128.711C405.045 129.24 406.025 129.957 406.779 130.864C407.608 131.695 408.173 132.677 408.475 133.81C408.851 134.867 409.04 135.963 409.04 137.096C409.04 139.438 408.286 141.553 406.779 143.441C405.271 145.405 402.822 146.387 399.43 146.387H358.843C355.3 146.387 352.285 146.047 349.798 145.367C347.311 144.688 345.276 143.592 343.693 142.081C342.185 140.571 341.055 138.607 340.301 136.189C339.623 133.697 339.284 130.675 339.284 127.125V106.502C339.284 102.952 339.623 99.9682 340.301 97.5509C341.055 95.1336 342.185 93.1696 343.693 91.6588C345.276 90.148 347.311 89.0905 349.798 88.4862C352.285 87.8063 355.3 87.4664 358.843 87.4664H371.053V71.0365C371.053 70.2811 370.864 69.5635 370.487 68.8837C370.111 68.2038 369.282 67.8639 368 67.8639H350.024C348.291 67.8639 346.821 67.5995 345.615 67.0707C344.409 66.5419 343.429 65.8243 342.675 64.9178C341.922 64.0114 341.356 62.9916 340.98 61.8585C340.603 60.7254 340.414 59.5923 340.414 58.4592C340.414 57.3261 340.565 56.193 340.866 55.0599C341.243 53.9268 341.809 52.907 342.562 52.0006C343.391 51.0941 344.409 50.3765 345.615 49.8477C346.821 49.2434 348.291 48.9412 350.024 48.9412H373.54C377.459 48.9412 380.663 49.2434 383.15 49.8477C385.712 50.452 387.748 51.434 389.255 52.7937C390.762 54.1534 391.818 55.9286 392.421 58.1193C393.023 60.3099 393.325 63.0293 393.325 66.2775V105.936H365.852C363.892 105.936 362.724 106.276 362.347 106.956C361.97 107.56 361.782 108.844 361.782 110.808V123.045ZM416.728 151.146V120.099H407.005C405.271 120.099 403.802 119.835 402.596 119.306C401.465 118.702 400.485 117.947 399.656 117.04C398.902 116.134 398.337 115.114 397.96 113.981C397.659 112.772 397.508 111.601 397.508 110.468C397.508 109.335 397.659 108.202 397.96 107.069C398.337 105.936 398.902 104.916 399.656 104.01C400.41 103.028 401.39 102.272 402.596 101.743C403.802 101.139 405.271 100.837 407.005 100.837H416.728V86.7865H407.118C405.384 86.7865 403.915 86.5221 402.709 85.9934C401.578 85.389 400.598 84.6336 399.769 83.7272C399.015 82.8207 398.45 81.8009 398.073 80.6678C397.772 79.4592 397.621 78.2883 397.621 77.1552C397.621 76.0221 397.772 74.889 398.073 73.7559C398.45 72.6229 399.015 71.6031 399.769 70.6966C400.523 69.7146 401.503 68.9592 402.709 68.4304C403.915 67.8261 405.384 67.5239 407.118 67.5239H416.728V55.9664C416.728 52.265 417.821 49.47 420.006 47.5815C422.192 45.693 424.793 44.7488 427.807 44.7488C430.747 44.7488 433.347 45.7308 435.608 47.6948C437.869 49.5833 439 52.3405 439 55.9664V151.146H416.728Z" fill="#97C751"/>
<path d="M239.362 132.067C236.093 131.506 233.47 130.749 231.492 129.796C229.514 128.843 228.045 127.594 227.085 126.05C226.126 124.506 225.564 122.646 225.401 120.472C225.324 118.237 225.547 115.593 226.069 112.54L237.793 43.9675C238.468 40.0215 239.991 37.3708 242.364 36.0156C244.737 34.6604 247.558 34.2635 250.827 34.8248C254.021 35.3734 256.431 36.7071 258.057 38.8257C259.77 40.8826 260.296 43.8469 259.634 47.7185L256.712 64.8058L275.656 68.0591L278.577 50.9719C279.252 47.0258 280.739 44.3688 283.037 43.0008C285.336 41.6328 288.082 41.2232 291.277 41.7718C294.545 42.3331 296.993 43.6731 298.619 45.7917C300.332 47.8487 300.857 50.813 300.195 54.6846L295.918 79.7012L309.401 82.0169L314.347 53.0914C314.958 49.5176 316.531 47.0286 319.065 45.6244C321.612 44.1458 324.334 43.6553 327.231 44.1529C328.643 44.3953 329.972 44.8919 331.22 45.6427C332.481 46.3191 333.555 47.1933 334.443 48.2654C335.33 49.3375 335.956 50.5946 336.321 52.0369C336.761 53.4919 336.828 55.1128 336.522 56.8997L320.444 150.936L298.269 147.127L306.136 101.114L292.653 98.7987L285.607 140.009L239.362 132.067ZM267.139 117.869L272.543 86.2632L253.6 83.0098L248.692 111.712C248.476 112.978 248.522 113.829 248.829 114.265C249.224 114.639 250.053 114.935 251.316 115.152L267.139 117.869Z" fill="#97C751"/>
<path d="M129.112 146.614C125.569 146.614 122.705 146.387 120.519 145.934C118.409 145.481 116.789 144.65 115.658 143.441C114.527 142.233 113.774 140.571 113.397 138.456C113.02 136.265 112.832 133.47 112.832 130.071V65.1444C112.832 61.7452 113.02 58.988 113.397 56.8729C113.774 54.6822 114.527 52.9826 115.658 51.774C116.789 50.5653 118.409 49.7722 120.519 49.3945C122.705 48.9412 125.569 48.7146 129.112 48.7146H175.578C178.744 48.7146 180.967 49.6211 182.249 51.434C183.605 53.247 184.284 55.3243 184.284 57.666C184.284 60.0833 183.605 62.1984 182.249 64.0114C180.967 65.8243 178.744 66.7308 175.578 66.7308H170.038C168.757 66.7308 167.928 66.9196 167.551 67.2973C167.174 67.675 166.986 68.506 166.986 69.7901V125.538C166.986 126.822 167.174 127.653 167.551 128.031C167.928 128.409 168.757 128.598 170.038 128.598H177.613C180.854 128.598 183.115 129.504 184.397 131.317C185.678 133.13 186.319 135.207 186.319 137.549C186.319 139.966 185.64 142.081 184.284 143.894C183.002 145.707 180.779 146.614 177.613 146.614H129.112ZM189.258 55.7398C189.258 52.1139 190.351 49.3945 192.537 47.5815C194.798 45.693 197.398 44.7488 200.338 44.7488C201.77 44.7488 203.164 45.0132 204.521 45.5419C205.877 45.9952 207.046 46.675 208.026 47.5815C209.081 48.488 209.91 49.6211 210.513 50.9808C211.116 52.3405 211.417 53.9268 211.417 55.7398V84.407H213.565C215.299 84.407 216.769 84.7092 217.975 85.3135C219.181 85.9178 220.16 86.711 220.914 87.693C221.668 88.5995 222.195 89.657 222.497 90.8656C222.874 91.9987 223.062 93.1318 223.062 94.2649C223.062 95.398 222.874 96.5689 222.497 97.7775C222.195 98.9106 221.63 99.9682 220.801 100.95C220.047 101.857 219.067 102.612 217.862 103.216C216.656 103.821 215.224 104.123 213.565 104.123H211.417V151.146H189.258V55.7398ZM133.747 125.538C133.747 126.822 133.936 127.653 134.312 128.031C134.689 128.409 135.518 128.598 136.8 128.598H146.183V66.7308H136.8C135.518 66.7308 134.689 66.9196 134.312 67.2973C133.936 67.675 133.747 68.506 133.747 69.7901V125.538Z" fill="#97C751"/>
<path d="M77.5571 151.146V124.179H61.39C60.3348 132.488 57.0561 138.682 51.554 142.761C46.1273 146.916 39.3062 148.993 31.0907 148.993C26.5684 148.993 22.3853 148.351 18.5414 147.067C14.7728 145.858 11.4941 144.008 8.70539 141.515C5.99202 138.947 3.84394 135.774 2.26114 131.997C0.753713 128.144 0 123.688 0 118.626V76.9286C0 71.8675 0.753713 67.4484 2.26114 63.6714C3.84394 59.8189 5.99202 56.6463 8.70539 54.1534C11.4941 51.5851 14.7728 49.6966 18.5414 48.488C22.3853 47.2038 26.5684 46.5617 31.0907 46.5617C38.7786 46.5617 45.2605 48.3747 50.5365 52.0006C55.8879 55.6265 59.3549 61.0275 60.9377 68.2038H77.5571V55.9664C77.5571 52.265 78.65 49.47 80.8358 47.5815C83.0215 45.693 85.6219 44.7488 88.6367 44.7488C91.5762 44.7488 94.1765 45.7308 96.4377 47.6948C98.6988 49.5833 99.8294 52.3405 99.8294 55.9664V151.146H77.5571ZM21.82 119.42C21.82 123.348 22.6868 126.18 24.4203 127.918C26.2292 129.655 28.4527 130.524 31.0907 130.524C33.7287 130.524 35.9145 129.655 37.648 127.918C39.4569 126.18 40.3614 123.348 40.3614 119.42V76.1354C40.3614 72.2829 39.4569 69.488 37.648 67.7506C35.9145 65.9376 33.7287 65.0311 31.0907 65.0311C28.4527 65.0311 26.2292 65.9376 24.4203 67.7506C22.6868 69.488 21.82 72.2829 21.82 76.1354V119.42ZM61.8422 105.369H77.5571V87.0131H61.8422V105.369Z" fill="#97C751"/>
<path fill-rule="evenodd" clip-rule="evenodd" d="M190.879 1.46686C196.382 3.30542 202.959 7.28909 209.717 15.5674C214.439 21.3518 217.819 28.3702 220.198 34.2725C223.493 25.3902 229.993 15.2886 242.512 11.5244C244.48 10.9326 246.554 12.0519 247.144 14.0243C247.735 15.9968 246.618 18.0754 244.65 18.6672C232.544 22.3072 227.337 34.0912 225.331 43.1397C225.168 43.8747 224.74 45.2575 224.046 46.3234C223.856 46.6155 223.541 47.0503 223.074 47.4496C222.634 47.8269 221.703 48.4721 220.366 48.4677C218.893 48.4629 217.853 47.684 217.284 47.0203C216.766 46.4163 216.492 45.7649 216.339 45.3272C216.308 45.237 216.276 45.1459 216.244 45.0538C214.036 38.73 210.318 28.0804 203.958 20.2896C197.997 12.9879 192.562 9.88972 188.526 8.54146C185.033 7.37453 182.444 7.43848 180.753 7.48025C180.473 7.48717 180.217 7.49348 179.986 7.49348C177.932 7.49348 176.266 5.82411 176.266 3.76484C176.266 1.70556 177.932 0.0361927 179.986 0.0361939C180.129 0.0361939 180.315 0.030602 180.54 0.023814C182.21 -0.0265086 186.061 -0.142563 190.879 1.46686Z" fill="#97C751"/>
<g clip-path="url(#clip0_640_339)">
<path d="M157.692 235.998H152V187.99L157.692 186.747V235.998ZM172.915 201.158L177.371 204.387L166.417 218.174L179.102 233.452L174.708 236.869L159.735 218.484L172.914 201.158H172.915Z" fill="#1F1E1B"/>
<path d="M182.505 226.869C182.505 223.433 183.649 220.813 185.941 219.014C188.23 217.212 191.561 216.311 195.931 216.311H202.494V214.137C202.494 208.879 200.182 206.25 195.561 206.25C194.079 206.25 192.52 206.457 190.893 206.871C189.261 207.286 187.767 207.803 186.405 208.424L184.733 204.387C186.425 203.434 188.25 202.701 190.211 202.18C192.169 201.665 194.078 201.405 195.931 201.405C203.935 201.405 207.936 205.691 207.936 214.261V235.998H203.73L203.049 232.272C201.357 233.638 199.554 234.693 197.635 235.44C195.717 236.186 193.894 236.558 192.158 236.558C189.148 236.558 186.788 235.699 185.076 233.98C183.365 232.261 182.506 229.892 182.506 226.869M193.188 231.962C193.97 231.962 194.779 231.859 195.622 231.65C196.464 231.444 197.305 231.175 198.147 230.843C198.989 230.511 199.782 230.108 200.519 229.632C201.261 229.155 201.917 228.647 202.494 228.111V220.161H196.576C193.579 220.161 191.391 220.679 190.014 221.714C188.64 222.749 187.952 224.384 187.952 226.62C187.952 230.181 189.695 231.962 193.188 231.962" fill="#1F1E1B"/>
<path d="M223.479 235.998H217.786V187.99L223.479 186.747V235.998ZM238.697 201.158L243.152 204.387L232.204 218.174L244.885 233.452L240.493 236.869L225.52 218.483L238.697 201.157V201.158Z" fill="#1F1E1B"/>
<path d="M248.013 226.869C248.013 223.433 249.156 220.813 251.445 219.014C253.738 217.212 257.065 216.311 261.439 216.311H267.997V214.137C267.997 208.879 265.688 206.25 261.068 206.25C259.583 206.25 258.027 206.457 256.395 206.871C254.764 207.286 253.27 207.803 251.912 208.424L250.24 204.387C251.933 203.434 253.757 202.701 255.715 202.18C257.673 201.665 259.582 201.405 261.438 201.405C269.439 201.405 273.443 205.691 273.443 214.261V235.998H269.233L268.553 232.272C266.861 233.638 265.06 234.693 263.139 235.44C261.221 236.186 259.397 236.558 257.665 236.558C254.652 236.558 252.29 235.699 250.579 233.98C248.867 232.261 248.013 229.892 248.013 226.869M258.696 231.962C259.473 231.962 260.287 231.859 261.128 231.65C261.97 231.444 262.812 231.175 263.654 230.843C264.496 230.511 265.286 230.108 266.027 229.632C266.764 229.155 267.42 228.647 267.996 228.111V220.161H262.082C259.082 220.161 256.895 220.679 255.52 221.714C254.143 222.749 253.458 224.384 253.458 226.62C253.458 230.181 255.202 231.962 258.694 231.962" fill="#1F1E1B"/>
<path d="M296.662 201.467C301.363 201.467 305.057 203 307.735 206.062C310.419 209.128 311.76 213.517 311.76 219.23C311.76 224.943 310.431 229.189 307.768 232.211C305.108 235.23 301.403 236.743 296.662 236.743C291.921 236.743 288.267 235.23 285.589 232.211C282.905 229.189 281.564 224.86 281.564 219.23C281.564 213.6 282.914 209.128 285.617 206.062C288.32 203 292.002 201.467 296.662 201.467ZM296.662 206.062C293.693 206.062 291.413 207.18 289.826 209.417C288.235 211.652 287.441 214.924 287.441 219.23C287.441 223.536 288.235 226.714 289.826 228.887C291.413 231.06 293.693 232.148 296.662 232.148C299.631 232.148 301.971 231.06 303.563 228.887C305.15 226.714 305.943 223.494 305.943 219.23C305.943 214.965 305.15 211.652 303.563 209.417C301.972 207.18 299.67 206.062 296.662 206.062Z" fill="#1F1E1B"/>
<path d="M359.143 200.079C359.143 200.079 352.334 199.453 348.208 203.787C348.208 203.787 347.43 204.341 346.471 203.715C346.471 203.715 343.089 199.501 337.343 199.766C337.343 199.766 331.538 199.896 327.712 204.471C327.712 204.471 327.076 203.289 326.333 201.687H319.657V235.726H328.115V208.603C328.115 208.603 330.258 206.966 333.232 206.918C333.232 206.918 339.645 206.195 339.645 211.975V235.726H348.062V209.374C348.062 209.374 350.133 207.159 352.868 206.918C352.868 206.918 358.754 206.34 359.592 210.674V235.726H368.01V208.603C368.01 208.603 366.411 200.392 359.142 200.079H359.143Z" fill="#1A2019"/>
<path d="M389.106 200.207C389.106 200.207 380.152 200.011 375.58 204.154L378.345 209.469C378.345 209.469 382.018 207.536 386.688 207.471C386.688 207.471 392.107 206.949 393.623 211.701V215.943H384.438C384.438 215.943 375.29 215.812 374.075 225.316C374.075 225.316 373.308 230.934 376.954 233.888C376.954 233.888 379.512 236.471 384.247 236.729C384.247 236.729 388.436 237.049 391.683 234.77L394.739 232.868L395.953 235.966H401.323V212.857C401.323 212.857 401.709 200.015 389.107 200.207L389.106 200.207ZM393.623 227.497C389.753 231.092 385.96 230.418 385.96 230.418C382.817 230.265 382.194 228.212 382.194 228.212C380.722 221.212 386.74 221.349 386.74 221.349H393.623V227.496L393.623 227.497Z" fill="#1A2019"/>
<path d="M436.544 204.573C436.544 204.573 433.762 200.335 427.748 200.335C427.748 200.335 422.293 199.885 417.751 204.252L415.841 201.363L410.219 201.427V248.981H417.919V235.973C417.919 235.973 420.073 236.905 423.272 236.84C423.272 236.84 427.809 236.936 430.975 235.396C430.975 235.396 439.303 231.735 439.422 222.809V212.085C439.422 212.085 439.133 208.137 436.543 204.573H436.544ZM430.965 214.397V222.054C430.965 226.437 425.642 229.616 425.642 229.616C421.755 231.976 417.919 229.808 417.919 229.808V209.003C420.233 207.029 424.106 207.221 424.106 207.221C431.471 207.269 430.965 214.397 430.965 214.397V214.397Z" fill="#1A2019"/>
</g>
<path d="M11.356 236.212L1.632 201.192H9.928L16.116 226.216H16.388L23.46 201.192H29.852L36.992 226.216H37.264L43.452 201.192H50.592L40.936 236.212H33.388L26.316 212.48H26.112L19.108 236.212H11.356ZM57.0881 236.212V201.192H64.9761V236.212H57.0881ZM57.0881 195.412V188.272H65.0441V195.412H57.0881ZM86.385 236.62C79.7663 236.62 76.457 233.605 76.457 227.576V207.312H71.561V201.192H76.457V192.964H84.141V201.192H92.505V207.312H84.141V226.488C84.141 227.984 84.481 229.027 85.161 229.616C85.841 230.205 87.0876 230.5 88.901 230.5C90.261 230.5 91.5983 230.319 92.913 229.956V235.192C91.009 236.144 88.833 236.62 86.385 236.62ZM100.05 236.212V186.504H107.87V204.184H108.21C111.474 201.781 115.191 200.58 119.362 200.58C122.807 200.58 125.368 201.351 127.046 202.892C128.723 204.388 129.562 206.836 129.562 210.236V236.212H121.674V212.072C121.674 210.259 121.266 208.989 120.45 208.264C119.634 207.493 118.07 207.108 115.758 207.108C113.128 207.108 110.499 207.743 107.87 209.012V236.212H100.05Z" fill="black"/>
<defs>
<clipPath id="clip0_640_339">
<rect width="287.423" height="62.234" fill="white" transform="translate(152 186.747)"/>
</clipPath>
</defs>
</svg>
