<svg width="177" height="61" viewBox="0 0 177 61" fill="none" xmlns="http://www.w3.org/2000/svg">
<path d="M145.867 49.5003C145.867 50.2904 146.019 50.8222 146.323 51.0957C146.626 51.3388 147.173 51.4604 147.964 51.4604H161.046C161.745 51.4604 162.337 51.5667 162.824 51.7795C163.31 51.9922 163.705 52.2809 164.009 52.6455C164.343 52.9798 164.571 53.3749 164.693 53.8307C164.845 54.2562 164.921 54.6968 164.921 55.1526C164.921 56.0947 164.617 56.9456 164.009 57.7053C163.401 58.4954 162.413 58.8905 161.046 58.8905H144.682C143.253 58.8905 142.038 58.7537 141.035 58.4802C140.032 58.2067 139.212 57.7661 138.573 57.1583C137.966 56.5505 137.51 55.7604 137.206 54.788C136.932 53.7851 136.796 52.5696 136.796 51.1413V42.8451C136.796 41.4169 136.932 40.2165 137.206 39.244C137.51 38.2716 137.966 37.4815 138.573 36.8737C139.212 36.2659 140.032 35.8405 141.035 35.5974C142.038 35.3239 143.253 35.1871 144.682 35.1871H149.605V28.5776C149.605 28.2737 149.529 27.985 149.377 27.7115C149.225 27.438 148.89 27.3012 148.374 27.3012H141.126C140.427 27.3012 139.835 27.1949 139.348 26.9821C138.862 26.7694 138.467 26.4807 138.163 26.1161C137.859 25.7514 137.631 25.3411 137.479 24.8853C137.327 24.4295 137.251 23.9736 137.251 23.5178C137.251 23.062 137.312 22.6061 137.434 22.1503C137.586 21.6945 137.814 21.2842 138.118 20.9196C138.452 20.5549 138.862 20.2662 139.348 20.0535C139.835 19.8104 140.427 19.6888 141.126 19.6888H150.607C152.188 19.6888 153.479 19.8104 154.482 20.0535C155.515 20.2966 156.336 20.6916 156.943 21.2386C157.551 21.7856 157.977 22.4998 158.22 23.3811C158.463 24.2623 158.584 25.3563 158.584 26.6631V42.6172H147.508C146.718 42.6172 146.247 42.754 146.095 43.0275C145.943 43.2706 145.867 43.7872 145.867 44.5773V49.5003ZM168.02 60.805V48.3151H164.1C163.401 48.3151 162.809 48.2088 162.322 47.996C161.866 47.7529 161.471 47.449 161.137 47.0844C160.833 46.7197 160.605 46.3095 160.453 45.8536C160.332 45.3674 160.271 44.8964 160.271 44.4405C160.271 43.9847 160.332 43.5289 160.453 43.073C160.605 42.6172 160.833 42.207 161.137 41.8423C161.441 41.4472 161.836 41.1434 162.322 40.9306C162.809 40.6875 163.401 40.566 164.1 40.566H168.02V34.9136H164.146C163.447 34.9136 162.854 34.8073 162.368 34.5946C161.912 34.3514 161.517 34.0476 161.183 33.6829C160.879 33.3182 160.651 32.908 160.499 32.4521C160.377 31.9659 160.317 31.4949 160.317 31.0391C160.317 30.5832 160.377 30.1274 160.499 29.6716C160.651 29.2157 160.879 28.8055 161.183 28.4408C161.487 28.0458 161.882 27.7419 162.368 27.5291C162.854 27.286 163.447 27.1645 164.146 27.1645H168.02V22.515C168.02 21.0259 168.461 19.9015 169.342 19.1418C170.223 18.3821 171.272 18.0022 172.487 18.0022C173.673 18.0022 174.721 18.3973 175.633 19.1874C176.544 19.9471 177 21.0563 177 22.515V60.805H168.02Z" fill="#97C751"/>
<path d="M96.508 53.1296C95.1901 52.9037 94.1324 52.5991 93.3348 52.2158C92.5372 51.8325 91.9449 51.3302 91.5581 50.7089C91.1712 50.0876 90.9448 49.3397 90.8789 48.4651C90.848 47.5657 90.9378 46.502 91.1482 45.2739L95.8754 17.6879C96.1474 16.1004 96.7617 15.0341 97.7185 14.4889C98.6752 13.9437 99.8125 13.784 101.13 14.0098C102.418 14.2306 103.39 14.7671 104.046 15.6194C104.736 16.4468 104.948 17.6393 104.681 19.1969L103.503 26.0709L111.141 27.3797L112.319 20.5057C112.591 18.9182 113.191 17.8493 114.117 17.299C115.044 16.7487 116.151 16.5838 117.439 16.8045C118.757 17.0304 119.744 17.5694 120.4 18.4217C121.09 19.2492 121.302 20.4417 121.035 21.9992L119.311 32.0632L124.747 32.9948L126.741 21.3583C126.987 19.9206 127.622 18.9193 128.643 18.3544C129.67 17.7596 130.768 17.5623 131.936 17.7624C132.505 17.86 133.041 18.0597 133.544 18.3618C134.053 18.6339 134.486 18.9856 134.843 19.4169C135.201 19.8482 135.454 20.3539 135.601 20.9341C135.778 21.5194 135.805 22.1715 135.682 22.8904L129.199 60.7201L120.259 59.1881L123.431 40.6775L117.994 39.746L115.153 56.3246L96.508 53.1296ZM107.708 47.4178L109.886 34.7031L102.248 33.3942L100.27 44.9409C100.183 45.4501 100.201 45.7924 100.325 45.9678C100.484 46.1184 100.819 46.2373 101.328 46.3246L107.708 47.4178Z" fill="#97C751"/>
<path d="M52.0562 58.9816C50.6279 58.9816 49.4731 58.8905 48.5918 58.7081C47.741 58.5258 47.0876 58.1915 46.6318 57.7053C46.1759 57.2191 45.872 56.5505 45.7201 55.6996C45.5682 54.8184 45.4922 53.694 45.4922 52.3265V26.2072C45.4922 24.8397 45.5682 23.7305 45.7201 22.8796C45.872 21.9984 46.1759 21.3146 46.6318 20.8284C47.0876 20.3422 47.741 20.0231 48.5918 19.8711C49.4731 19.6888 50.6279 19.5976 52.0562 19.5976H70.7909C72.0673 19.5976 72.9637 19.9623 73.4803 20.6916C74.0273 21.421 74.3008 22.2567 74.3008 23.1987C74.3008 24.1712 74.0273 25.0221 73.4803 25.7514C72.9637 26.4807 72.0673 26.8454 70.7909 26.8454H68.5573C68.0407 26.8454 67.7065 26.9214 67.5545 27.0733C67.4026 27.2253 67.3266 27.5595 67.3266 28.0761V50.5031C67.3266 51.0197 67.4026 51.354 67.5545 51.506C67.7065 51.6579 68.0407 51.7339 68.5573 51.7339H71.6114C72.9181 51.7339 73.8298 52.0985 74.3464 52.8279C74.863 53.5572 75.1213 54.3929 75.1213 55.335C75.1213 56.3074 74.8478 57.1583 74.3008 57.8876C73.7842 58.617 72.8878 58.9816 71.6114 58.9816H52.0562ZM76.3065 22.4238C76.3065 20.9651 76.7471 19.8711 77.6284 19.1418C78.5401 18.3821 79.5885 18.0022 80.7737 18.0022C81.3511 18.0022 81.9132 18.1086 82.4603 18.3213C83.0073 18.5036 83.4783 18.7771 83.8733 19.1418C84.2988 19.5065 84.6331 19.9623 84.8762 20.5093C85.1193 21.0563 85.2408 21.6945 85.2408 22.4238V33.9564H86.1069C86.8059 33.9564 87.3984 34.0779 87.8847 34.3211C88.3709 34.5642 88.7659 34.8832 89.0698 35.2783C89.3737 35.643 89.5864 36.0684 89.708 36.5546C89.8599 37.0105 89.9359 37.4663 89.9359 37.9221C89.9359 38.378 89.8599 38.849 89.708 39.3352C89.5864 39.7911 89.3585 40.2165 89.0243 40.6115C88.7204 40.9762 88.3253 41.2801 87.8391 41.5232C87.3529 41.7663 86.7755 41.8879 86.1069 41.8879H85.2408V60.805H76.3065V22.4238ZM53.9251 50.5031C53.9251 51.0197 54.0011 51.354 54.153 51.506C54.305 51.6579 54.6392 51.7339 55.1558 51.7339H58.9393V26.8454H55.1558C54.6392 26.8454 54.305 26.9214 54.153 27.0733C54.0011 27.2253 53.9251 27.5595 53.9251 28.0761V50.5031Z" fill="#97C751"/>
<path d="M31.2701 60.805V49.9561H24.7517C24.3263 53.2989 23.0044 55.7908 20.786 57.4318C18.598 59.1032 15.8478 59.9389 12.5354 59.9389C10.7121 59.9389 9.02549 59.6806 7.47566 59.164C5.95622 58.6777 4.6343 57.9332 3.50991 56.9304C2.41592 55.8972 1.54983 54.6208 0.911666 53.1014C0.303889 51.5515 0 49.7586 0 47.7225V30.9479C0 28.9118 0.303889 27.1341 0.911666 25.6146C1.54983 24.0648 2.41592 22.7885 3.50991 21.7856C4.6343 20.7524 5.95622 19.9927 7.47566 19.5065C9.02549 18.9899 10.7121 18.7316 12.5354 18.7316C15.6351 18.7316 18.2485 19.4609 20.3757 20.9196C22.5333 22.3782 23.9312 24.551 24.5694 27.438H31.2701V22.515C31.2701 21.0259 31.7108 19.9015 32.5921 19.1418C33.4733 18.3821 34.5218 18.0022 35.7373 18.0022C36.9225 18.0022 37.9709 18.3973 38.8826 19.1874C39.7942 19.9471 40.2501 21.0563 40.2501 22.515V60.805H31.2701ZM8.79758 48.0416C8.79758 49.6219 9.14705 50.7614 9.846 51.4604C10.5753 52.1593 11.4718 52.5088 12.5354 52.5088C13.599 52.5088 14.4803 52.1593 15.1792 51.4604C15.9086 50.7614 16.2732 49.6219 16.2732 48.0416V30.6288C16.2732 29.079 15.9086 27.9546 15.1792 27.2556C14.4803 26.5263 13.599 26.1616 12.5354 26.1616C11.4718 26.1616 10.5753 26.5263 9.846 27.2556C9.14705 27.9546 8.79758 29.079 8.79758 30.6288V48.0416ZM24.9341 42.3893H31.2701V35.0048H24.9341V42.3893Z" fill="#97C751"/>
<path fill-rule="evenodd" clip-rule="evenodd" d="M76.9603 0.590103C79.1792 1.32974 81.8308 2.93234 84.5556 6.26262C86.4595 8.58963 87.8221 11.4131 88.7813 13.7875C90.11 10.2143 92.7305 6.15047 97.7782 4.63615C98.5717 4.3981 99.4079 4.84838 99.646 5.64187C99.884 6.43536 99.4337 7.27158 98.6402 7.50963C93.7591 8.97398 91.6599 13.7146 90.851 17.3547C90.7853 17.6504 90.6128 18.2067 90.3331 18.6355C90.2564 18.753 90.1292 18.9279 89.9411 19.0885C89.7635 19.2403 89.3882 19.4999 88.8492 19.4981C88.2551 19.4962 87.8361 19.1829 87.6065 18.9158C87.3976 18.6729 87.2872 18.4108 87.2255 18.2347C87.2128 18.1985 87.2 18.1618 87.1871 18.1247C86.297 15.5807 84.798 11.2965 82.2337 8.16233C79.8304 5.22491 77.6388 3.97855 76.0116 3.43615C74.6032 2.96671 73.5594 2.99244 72.8777 3.00924C72.7647 3.01202 72.6617 3.01456 72.5686 3.01456C71.7402 3.01456 71.0686 2.34299 71.0686 1.51456C71.0686 0.686132 71.7402 0.01456 72.5686 0.0145605C72.6262 0.0145605 72.701 0.0123109 72.7919 0.00958017C73.4651 -0.0106642 75.0179 -0.057352 76.9603 0.590103Z" fill="#97C751"/>
</svg>
