<svg width="36" height="36" viewBox="0 0 36 36" fill="none" xmlns="http://www.w3.org/2000/svg">
  <g filter="url(#filter0_d_89_607)">
    <g clip-path="url(#clip0_89_607)">
      <path d="M7.64375 28.7638C7.4981 28.8864 7.3205 28.9648 7.13183 28.9899C6.94315 29.015 6.75124 28.9857 6.57862 28.9055C6.40601 28.8253 6.25987 28.6975 6.15738 28.5371C6.05488 28.3767 6.00028 28.1904 6 28.0001V3.70711C6 3.44189 6.10536 3.18754 6.29289 3C6.48043 2.81246 6.73478 2.70711 7 2.70711H29C29.2652 2.70711 29.5196 2.81246 29.7071 3C29.8946 3.18754 30 3.44189 30 3.70711V24.0001C30 24.2653 29.8946 24.5196 29.7071 24.7072C29.5196 24.8947 29.2652 25.0001 29 25.0001H12.3125C12.0769 25.0001 11.849 25.0834 11.6687 25.2351L7.64375 28.7638Z" fill="white" stroke="#97C751" stroke-linecap="round" stroke-linejoin="round"/>
    </g>
    <g clip-path="url(#clip1_89_607)">
      <path d="M24.1875 8.9375H11.8125" stroke="#97C751" stroke-linecap="round" stroke-linejoin="round"/>
      <path d="M16.3125 12.3125V16.8125" stroke="#97C751" stroke-linecap="round" stroke-linejoin="round"/>
      <path d="M19.6875 12.3125V16.8125" stroke="#97C751" stroke-linecap="round" stroke-linejoin="round"/>
      <path d="M23.0625 8.9375V19.625C23.0625 19.7742 23.0032 19.9173 22.8977 20.0227C22.7923 20.1282 22.6492 20.1875 22.5 20.1875H13.5C13.3508 20.1875 13.2077 20.1282 13.1023 20.0227C12.9968 19.9173 12.9375 19.7742 12.9375 19.625V8.9375" stroke="#97C751" stroke-linecap="round" stroke-linejoin="round"/>
      <path d="M20.8125 8.9375V7.8125C20.8125 7.51413 20.694 7.22798 20.483 7.017C20.272 6.80603 19.9859 6.6875 19.6875 6.6875H16.3125C16.0141 6.6875 15.728 6.80603 15.517 7.017C15.306 7.22798 15.1875 7.51413 15.1875 7.8125V8.9375" stroke="#97C751" stroke-linecap="round" stroke-linejoin="round"/>
    </g>
  </g>
  <defs>
    <filter id="filter0_d_89_607" x="0%" y="0%" width="100%" height="100%" filterUnits="userSpaceOnUse" color-interpolation-filters="sRGB">
      <feFlood flood-opacity="0" result="BackgroundImageFix"/>
      <feColorMatrix in="SourceAlpha" type="matrix" values="0 0 0 0 0 0 0 0 0 0 0 0 0 0 0 0 0 0 127 0" result="hardAlpha"/>
      <feOffset dy="2"/>
      <feComposite in2="hardAlpha" operator="out"/>
      <feColorMatrix type="matrix" values="0 0 0 0 0 0 0 0 0 0 0 0 0 0 0 0 0 0 0.17 0"/>
      <feBlend mode="normal" in2="BackgroundImageFix" result="effect1_dropShadow_89_607"/>
      <feBlend mode="normal" in="SourceGraphic" in2="effect1_dropShadow_89_607" result="shape"/>
    </filter>
    <clipPath id="clip0_89_607">
      <rect width="32" height="32" fill="white" transform="translate(2)"/>
    </clipPath>
    <clipPath id="clip1_89_607">
      <rect width="18" height="18" fill="white" transform="translate(9 5)"/>
    </clipPath>
  </defs>
</svg>
